<?xml version="1.0" encoding="utf-8"?>
<!-- Generator: Adobe Illustrator 28.0.0, SVG Export Plug-In . SVG Version: 6.00 Build 0)  -->
<svg version="1.1" id="Layer_1" xmlns="http://www.w3.org/2000/svg" xmlns:xlink="http://www.w3.org/1999/xlink" x="0px" y="0px"
	 viewBox="0 0 1008 1008" style="enable-background:new 0 0 1008 1008;" xml:space="preserve">
<style type="text/css">
	.st0{fill:#152B44;stroke:#152B44;stroke-width:2;stroke-linejoin:round;stroke-miterlimit:10;}
	.st1{fill:#245EAC;stroke:#245EAC;stroke-width:5;stroke-linejoin:round;stroke-miterlimit:10;}
	.st2{fill:#FDD501;}
	.st3{fill:#245EAC;}
</style>
<g>
	<g>
		<path class="st0" d="M303.1,586.1h21.6v4.2H316v28.4h-4.4v-28.4h-8.5V586.1z"/>
		<path class="st0" d="M340.3,586.1c1.7,0,3.2,0.2,4.6,0.7c1.4,0.4,2.6,1.1,3.7,1.9s1.8,1.9,2.4,3.2c0.6,1.2,0.9,2.7,0.9,4.3
			c0,1.3-0.2,2.6-0.6,3.8c-0.4,1.2-1,2.4-1.9,3.4c-0.9,1-2,1.8-3.4,2.4c-1.4,0.6-3.1,0.9-5.2,0.9h-4.8v12h-4.4v-32.6H340.3z
			 M340.8,602.5c1.3,0,2.4-0.2,3.2-0.6c0.9-0.4,1.5-0.9,2-1.5c0.5-0.6,0.8-1.3,1-2c0.2-0.7,0.3-1.4,0.3-2c0-0.7-0.1-1.3-0.3-2.1
			c-0.2-0.7-0.6-1.4-1.1-2c-0.5-0.6-1.1-1.1-1.9-1.5c-0.8-0.4-1.8-0.6-2.9-0.6h-5v12.2H340.8z M346.1,604.9l8.5,13.7h-5l-8.7-13.6
			L346.1,604.9z"/>
		<path class="st0" d="M358.1,618.6l14.2-33.9h0.3l14.2,33.9h-5l-10.6-27.1l3.1-2l-11.9,29.1H358.1z M366.5,606.3h12.1l1.4,3.8
			h-14.8L366.5,606.3z"/>
		<path class="st0" d="M421.2,619.7L396,594.1l1.3,0.3l0.1,24.2H393v-33.6h0.2l24.9,25.6l-1-0.2l-0.1-24.4h4.3v33.6H421.2z"/>
		<path class="st0" d="M447.6,591.9c-1.1-0.6-2.3-1.1-3.7-1.5c-1.3-0.4-2.6-0.6-3.9-0.6c-1.7,0-3.1,0.4-4.2,1.2
			c-1,0.8-1.6,1.9-1.6,3.2c0,1,0.3,1.9,1,2.6c0.7,0.7,1.5,1.3,2.6,1.8s2.2,1,3.4,1.4c1,0.4,2,0.8,3,1.3s1.9,1.1,2.7,1.8
			c0.8,0.7,1.4,1.6,1.9,2.7s0.7,2.4,0.7,3.9c0,1.7-0.4,3.3-1.3,4.7c-0.9,1.4-2.1,2.5-3.7,3.3c-1.6,0.8-3.5,1.2-5.7,1.2
			c-1.4,0-2.8-0.2-4.1-0.5c-1.3-0.3-2.5-0.8-3.6-1.3c-1.1-0.5-2.1-1.1-3-1.6l1.9-3.4c0.7,0.5,1.5,1,2.5,1.5c0.9,0.5,1.9,0.8,2.9,1.1
			c1,0.3,2,0.4,3,0.4c1,0,2-0.2,3-0.6c1-0.4,1.8-1,2.5-1.7c0.7-0.8,1-1.8,1-3.1c0-1.1-0.3-2-0.9-2.8c-0.6-0.7-1.4-1.4-2.3-1.9
			c-1-0.5-2-1-3.1-1.4c-1-0.4-2.1-0.8-3.1-1.3c-1.1-0.5-2-1-2.9-1.7c-0.9-0.7-1.6-1.5-2.2-2.5c-0.5-1-0.8-2.2-0.8-3.6
			c0-1.7,0.4-3.2,1.2-4.5c0.8-1.3,2-2.3,3.4-3c1.4-0.7,3.1-1.1,5-1.2c2.1,0,4,0.3,5.6,0.8c1.6,0.5,3,1.1,4.3,1.9L447.6,591.9z"/>
		<path class="st0" d="M465.6,586.1c2.4,0,4.4,0.4,6.1,1.2c1.7,0.8,3,1.9,3.9,3.4c0.9,1.5,1.4,3.3,1.4,5.5c0,1.3-0.2,2.6-0.6,3.8
			c-0.4,1.2-1,2.4-1.9,3.4c-0.9,1-2,1.8-3.4,2.4c-1.4,0.6-3.1,0.9-5,0.9h-4.8v12h-4.4v-32.6H465.6z M466.1,602.5
			c1.3,0,2.4-0.2,3.2-0.6c0.8-0.4,1.5-1,2-1.6c0.5-0.6,0.8-1.3,1-2.1c0.2-0.7,0.3-1.4,0.3-1.9c0-0.7-0.1-1.3-0.3-2.1
			c-0.2-0.7-0.6-1.4-1.1-1.9c-0.5-0.6-1.1-1.1-1.9-1.4c-0.8-0.4-1.8-0.6-3-0.6h-5v12.2H466.1z"/>
		<path class="st0" d="M481.7,602.4c0-2.3,0.4-4.4,1.3-6.4c0.9-2,2.1-3.8,3.6-5.3c1.5-1.5,3.3-2.8,5.3-3.7c2-0.9,4.2-1.3,6.5-1.3
			c2.3,0,4.4,0.4,6.4,1.3c2,0.9,3.8,2.1,5.3,3.7c1.5,1.5,2.8,3.3,3.6,5.3c0.9,2,1.3,4.1,1.3,6.4c0,2.3-0.4,4.5-1.3,6.5
			c-0.9,2-2.1,3.8-3.6,5.3c-1.5,1.5-3.3,2.7-5.3,3.6c-2,0.9-4.1,1.3-6.4,1.3c-2.3,0-4.5-0.4-6.5-1.3c-2-0.8-3.8-2-5.3-3.5
			c-1.5-1.5-2.7-3.3-3.6-5.3C482.1,606.9,481.7,604.7,481.7,602.4z M486.2,602.4c0,1.7,0.3,3.3,0.9,4.8c0.6,1.5,1.5,2.8,2.6,3.9
			c1.1,1.1,2.4,2,3.9,2.7c1.5,0.6,3.1,1,4.8,1c1.7,0,3.3-0.3,4.7-1c1.5-0.6,2.7-1.5,3.8-2.7c1.1-1.1,1.9-2.5,2.6-3.9
			s0.9-3.1,0.9-4.8c0-1.7-0.3-3.3-0.9-4.8c-0.6-1.5-1.5-2.8-2.6-4c-1.1-1.1-2.4-2-3.9-2.7c-1.5-0.6-3-1-4.7-1c-1.7,0-3.3,0.3-4.8,1
			c-1.5,0.7-2.8,1.6-3.9,2.7c-1.1,1.1-2,2.5-2.6,4C486.5,599.1,486.2,600.7,486.2,602.4z"/>
		<path class="st0" d="M531,586.1c1.7,0,3.2,0.2,4.6,0.7c1.4,0.4,2.6,1.1,3.6,1.9c1,0.9,1.8,1.9,2.4,3.2c0.6,1.2,0.9,2.7,0.9,4.3
			c0,1.3-0.2,2.6-0.6,3.8c-0.4,1.2-1,2.4-1.9,3.4c-0.9,1-2,1.8-3.4,2.4c-1.4,0.6-3.1,0.9-5.2,0.9h-4.8v12h-4.4v-32.6H531z
			 M531.5,602.5c1.3,0,2.4-0.2,3.2-0.6s1.5-0.9,2-1.5c0.5-0.6,0.8-1.3,1-2c0.2-0.7,0.3-1.4,0.3-2c0-0.7-0.1-1.3-0.3-2.1
			c-0.2-0.7-0.6-1.4-1.1-2c-0.5-0.6-1.1-1.1-1.9-1.5c-0.8-0.4-1.8-0.6-2.9-0.6h-5v12.2H531.5z M536.8,604.9l8.5,13.7h-5l-8.7-13.6
			L536.8,604.9z"/>
		<path class="st0" d="M549.2,586.1h21.6v4.2h-8.7v28.4h-4.4v-28.4h-8.5V586.1z"/>
		<path class="st0" d="M572,618.6l14.2-33.9h0.3l14.2,33.9h-5l-10.6-27.1l3.1-2l-11.9,29.1H572z M580.4,606.3h12.1l1.4,3.8h-14.8
			L580.4,606.3z"/>
		<path class="st0" d="M601.9,586.1h21.6v4.2h-8.7v28.4h-4.4v-28.4h-8.5V586.1z"/>
		<path class="st0" d="M630.5,586.1h4.4v32.6h-4.4V586.1z"/>
		<path class="st0" d="M642.2,602.4c0-2.3,0.4-4.4,1.3-6.4c0.9-2,2.1-3.8,3.6-5.3c1.5-1.5,3.3-2.8,5.3-3.7c2-0.9,4.2-1.3,6.5-1.3
			c2.3,0,4.4,0.4,6.4,1.3c2,0.9,3.8,2.1,5.3,3.7c1.5,1.5,2.8,3.3,3.6,5.3c0.9,2,1.3,4.1,1.3,6.4c0,2.3-0.4,4.5-1.3,6.5
			c-0.9,2-2.1,3.8-3.6,5.3c-1.5,1.5-3.3,2.7-5.3,3.6s-4.1,1.3-6.4,1.3c-2.3,0-4.5-0.4-6.5-1.3c-2-0.8-3.8-2-5.3-3.5
			c-1.5-1.5-2.7-3.3-3.6-5.3C642.7,606.9,642.2,604.7,642.2,602.4z M646.7,602.4c0,1.7,0.3,3.3,0.9,4.8s1.5,2.8,2.6,3.9
			c1.1,1.1,2.4,2,3.9,2.7c1.5,0.6,3.1,1,4.8,1c1.7,0,3.3-0.3,4.7-1c1.5-0.6,2.7-1.5,3.8-2.7c1.1-1.1,1.9-2.5,2.6-3.9
			s0.9-3.1,0.9-4.8c0-1.7-0.3-3.3-0.9-4.8c-0.6-1.5-1.5-2.8-2.6-4c-1.1-1.1-2.4-2-3.9-2.7c-1.5-0.6-3-1-4.7-1c-1.7,0-3.3,0.3-4.8,1
			c-1.5,0.7-2.8,1.6-3.9,2.7c-1.1,1.1-2,2.5-2.6,4C647,599.1,646.7,600.7,646.7,602.4z"/>
		<path class="st0" d="M711.1,619.7l-25.2-25.6l1.3,0.3l0.1,24.2h-4.4v-33.6h0.2l24.9,25.6l-1-0.2l-0.1-24.4h4.3v33.6H711.1z"/>
	</g>
</g>
<g>
	<g>
		<path class="st1" d="M304.3,391.5h16.2v105.2h61.3v15.5h-77.5V391.5z"/>
		<path class="st1" d="M408.2,391.5h16.2v120.7h-16.2V391.5z"/>
		<path class="st1" d="M491.4,391.5c8.8,0,16.3,1.5,22.5,4.4c6.2,3,11,7.2,14.4,12.8c3.4,5.6,5.1,12.3,5.1,20.2
			c0,4.8-0.7,9.5-2.2,14.1c-1.4,4.6-3.8,8.8-6.9,12.5c-3.2,3.7-7.3,6.7-12.4,8.9c-5.1,2.2-11.4,3.3-18.7,3.3h-17.9v44.4h-16.2V391.5
			H491.4z M493.1,452.3c4.8,0,8.7-0.8,11.9-2.3c3.1-1.6,5.6-3.5,7.3-5.9c1.8-2.4,3.1-4.9,3.8-7.6c0.8-2.7,1.2-5.1,1.2-7.2
			c0-2.4-0.4-5-1.2-7.6c-0.8-2.6-2.1-5-3.9-7.2c-1.8-2.2-4.2-4-7.2-5.3c-3-1.4-6.6-2.1-10.9-2.1h-18.7v45.3H493.1z"/>
		<path class="st1" d="M535,512.3l52.8-125.8h1l52.6,125.8h-18.5l-39.4-100.4l11.5-7.5l-44.1,107.9H535z M565.9,466.5h44.9l5.3,14
			h-54.9L565.9,466.5z"/>
		<path class="st1" d="M664.1,391.5h16.2v120.7h-16.2V391.5z"/>
		<path class="st1" d="M715,512.3V391.5h32.9c11.9,0,22.1,1.8,30.5,5.5c8.4,3.7,15.2,8.5,20.3,14.5c5.1,6,8.9,12.7,11.3,20
			c2.4,7.3,3.6,14.6,3.6,21.8c0,9.1-1.6,17.3-4.8,24.5c-3.2,7.2-7.5,13.4-13.1,18.5c-5.6,5.1-11.9,9-19.1,11.8
			c-7.2,2.7-14.8,4.1-22.8,4.1H715z M731.2,496.7h19.4c6.7,0,12.8-1,18.5-3c5.6-2,10.5-4.9,14.7-8.7c4.2-3.8,7.4-8.4,9.8-13.9
			c2.3-5.5,3.5-11.8,3.5-18.8c0-7.5-1.2-14-3.7-19.6c-2.5-5.6-5.8-10.3-10-14.1c-4.2-3.8-9-6.7-14.4-8.6c-5.3-1.9-11-2.9-16.9-2.9
			h-20.9V496.7z"/>
	</g>
</g>
<rect x="206.1" y="485.6" class="st2" width="28.4" height="129.2"/>
<rect x="159.4" y="533.7" class="st2" width="121.8" height="28.4"/>
<rect x="300.7" y="533.7" class="st2" width="285.1" height="28.4"/>
<rect x="730.7" y="533.7" class="st3" width="37.1" height="28.4"/>
<rect x="667.6" y="533.7" class="st3" width="37.1" height="28.4"/>
<rect x="607.5" y="533.7" class="st3" width="37.1" height="28.4"/>
<polygon class="st3" points="788.8,548.8 788.8,514.3 818.7,531.5 848.6,548.8 818.7,566.1 788.8,583.3 "/>
</svg>
